# xmcd
#
# Track frame offsets:
#	150
#	25106
#	51774
#	75054
#	123560
#	144618
#	175155
#	195273
#	220408
#	251927
#
# Disc length: 3683 seconds
#
# Revision: 0
# Processed by: cddbd v1.5.2PL0 Copyright (c) Steve Scherf et al.
# Submitted via: EasyCDDAExtractor 8.2.4.1
#
DISCID=840e610a
DTITLE=Jimi Thackery And The Drivers - Wild Night Out!
DYEAR=1994
DGENRE=Blues
TTITLE0=Wild Night Out
TTITLE1=You Upset Me Baby
TTITLE2=The Stumble
TTITLE3=If You Go
TTITLE4=Empty Arms Motel
TTITLE5=Edward's Blues
TTITLE6=Flyin' Low
TTITLE7=Trouble Man
TTITLE8=Red House
TTITLE9=I Don't Live Today
EXTD=
EXTT0=
EXTT1=
EXTT2=
EXTT3=
EXTT4=
EXTT5=
EXTT6=
EXTT7=
EXTT8=
EXTT9=
PLAYORDER=
